<svg xmlns="http://www.w3.org/2000/svg" version="1.1" xmlns:xlink="http://www.w3.org/1999/xlink" xmlns:svgjs="http://svgjs.dev/svgjs" width="1920" height="1080" preserveAspectRatio="none" viewBox="0 0 1920 1080">
    <g mask="url(&quot;#SvgjsMask1335&quot;)" fill="none">
        <rect width="1920" height="1080" x="0" y="0" fill="#0e2a47"></rect>
        <path d="M31.35 241.53L68.59 263.03L68.59 306.03L31.35 327.53L-5.89 306.03L-5.89 263.03zM68.59 693.03L105.83 714.53L105.83 757.53L68.59 779.03L31.35 757.53L31.35 714.53zM31.35 886.53L68.59 908.03L68.59 951.03L31.35 972.53L-5.89 951.03L-5.89 908.03zM68.59 1080.03L105.83 1101.53L105.83 1144.53L68.59 1166.03L31.35 1144.53L31.35 1101.53zM143.07 306.03L180.31 327.53L180.31 370.53L143.07 392.03L105.83 370.53L105.83 327.53zM105.83 370.53L143.07 392.03L143.07 435.03L105.83 456.53L68.59 435.03L68.59 392.03zM180.31 -16.47L217.55 5.03L217.55 48.03L180.31 69.53L143.07 48.03L143.07 5.03zM217.55 822.03L254.79 843.53L254.79 886.53L217.55 908.03L180.31 886.53L180.31 843.53zM292.03 306.03L329.27 327.53L329.27 370.53L292.03 392.03L254.79 370.53L254.79 327.53zM254.79 499.53L292.03 521.03L292.03 564.03L254.79 585.53L217.55 564.03L217.55 521.03zM254.79 886.53L292.03 908.03L292.03 951.03L254.79 972.53L217.55 951.03L217.55 908.03zM292.03 1080.03L329.27 1101.53L329.27 1144.53L292.03 1166.03L254.79 1144.53L254.79 1101.53zM366.51 564.03L403.75 585.53L403.75 628.53L366.51 650.03L329.27 628.53L329.27 585.53zM366.51 693.03L403.75 714.53L403.75 757.53L366.51 779.03L329.27 757.53L329.27 714.53zM403.75 -16.47L440.99 5.03L440.99 48.03L403.75 69.53L366.51 48.03L366.51 5.03zM440.99 48.03L478.23 69.53L478.23 112.53L440.99 134.03L403.75 112.53L403.75 69.53zM403.75 112.53L440.99 134.03L440.99 177.03L403.75 198.53L366.51 177.03L366.51 134.03zM403.75 370.53L440.99 392.03L440.99 435.03L403.75 456.53L366.51 435.03L366.51 392.03zM403.75 499.53L440.99 521.03L440.99 564.03L403.75 585.53L366.51 564.03L366.51 521.03zM403.75 628.53L440.99 650.03L440.99 693.03L403.75 714.53L366.51 693.03L366.51 650.03zM403.75 886.53L440.99 908.03L440.99 951.03L403.75 972.53L366.51 951.03L366.51 908.03zM478.23 499.53L515.47 521.03L515.47 564.03L478.23 585.53L440.99 564.03L440.99 521.03zM515.47 564.03L552.71 585.53L552.71 628.53L515.47 650.03L478.23 628.53L478.23 585.53zM478.23 757.53L515.47 779.03L515.47 822.03L478.23 843.53L440.99 822.03L440.99 779.03zM478.23 886.53L515.47 908.03L515.47 951.03L478.23 972.53L440.99 951.03L440.99 908.03zM478.23 1015.53L515.47 1037.03L515.47 1080.03L478.23 1101.53L440.99 1080.03L440.99 1037.03zM552.71 -16.47L589.95 5.03L589.95 48.03L552.71 69.53L515.47 48.03L515.47 5.03zM589.95 48.03L627.19 69.53L627.19 112.53L589.95 134.03L552.71 112.53L552.71 69.53zM552.71 757.53L589.95 779.03L589.95 822.03L552.71 843.53L515.47 822.03L515.47 779.03zM664.43 564.03L701.67 585.53L701.67 628.53L664.43 650.03L627.19 628.53L627.19 585.53zM627.19 1015.53L664.43 1037.03L664.43 1080.03L627.19 1101.53L589.95 1080.03L589.95 1037.03zM701.67 -16.47L738.91 5.03L738.91 48.03L701.67 69.53L664.43 48.03L664.43 5.03zM738.91 48.03L776.15 69.53L776.15 112.53L738.91 134.03L701.67 112.53L701.67 69.53zM738.91 177.03L776.15 198.53L776.15 241.53L738.91 263.03L701.67 241.53L701.67 198.53zM701.67 370.53L738.91 392.03L738.91 435.03L701.67 456.53L664.43 435.03L664.43 392.03zM738.91 822.03L776.15 843.53L776.15 886.53L738.91 908.03L701.67 886.53L701.67 843.53zM738.91 951.03L776.15 972.53L776.15 1015.53L738.91 1037.03L701.67 1015.53L701.67 972.53zM813.39 177.03L850.63 198.53L850.63 241.53L813.39 263.03L776.15 241.53L776.15 198.53zM813.39 306.03L850.63 327.53L850.63 370.53L813.39 392.03L776.15 370.53L776.15 327.53zM776.15 628.53L813.39 650.03L813.39 693.03L776.15 714.53L738.91 693.03L738.91 650.03zM813.39 822.03L850.63 843.53L850.63 886.53L813.39 908.03L776.15 886.53L776.15 843.53zM887.87 48.03L925.11 69.53L925.11 112.53L887.87 134.03L850.63 112.53L850.63 69.53zM887.87 306.03L925.11 327.53L925.11 370.53L887.87 392.03L850.63 370.53L850.63 327.53zM887.87 435.03L925.11 456.53L925.11 499.53L887.87 521.03L850.63 499.53L850.63 456.53zM887.87 564.03L925.11 585.53L925.11 628.53L887.87 650.03L850.63 628.53L850.63 585.53zM887.87 822.03L925.11 843.53L925.11 886.53L887.87 908.03L850.63 886.53L850.63 843.53zM887.87 951.03L925.11 972.53L925.11 1015.53L887.87 1037.03L850.63 1015.53L850.63 972.53zM850.63 1015.53L887.87 1037.03L887.87 1080.03L850.63 1101.53L813.39 1080.03L813.39 1037.03zM962.35 48.03L999.59 69.53L999.59 112.53L962.35 134.03L925.11 112.53L925.11 69.53zM962.35 306.03L999.59 327.53L999.59 370.53L962.35 392.03L925.11 370.53L925.11 327.53zM962.35 564.03L999.59 585.53L999.59 628.53L962.35 650.03L925.11 628.53L925.11 585.53zM1036.83 48.03L1074.07 69.53L1074.07 112.53L1036.83 134.03L999.59 112.53L999.59 69.53zM999.59 499.53L1036.83 521.03L1036.83 564.03L999.59 585.53L962.35 564.03L962.35 521.03zM999.59 757.53L1036.83 779.03L1036.83 822.03L999.59 843.53L962.35 822.03L962.35 779.03zM999.59 886.53L1036.83 908.03L1036.83 951.03L999.59 972.53L962.35 951.03L962.35 908.03zM1074.07 -16.47L1111.31 5.03L1111.31 48.03L1074.07 69.53L1036.83 48.03L1036.83 5.03zM1074.07 112.53L1111.31 134.03L1111.31 177.03L1074.07 198.53L1036.83 177.03L1036.83 134.03zM1074.07 628.53L1111.31 650.03L1111.31 693.03L1074.07 714.53L1036.83 693.03L1036.83 650.03zM1111.31 822.03L1148.55 843.53L1148.55 886.53L1111.31 908.03L1074.07 886.53L1074.07 843.53zM1111.31 951.03L1148.55 972.53L1148.55 1015.53L1111.31 1037.03L1074.07 1015.53L1074.07 972.53zM1111.31 1080.03L1148.55 1101.53L1148.55 1144.53L1111.31 1166.03L1074.07 1144.53L1074.07 1101.53zM1148.55 112.53L1185.79 134.03L1185.79 177.03L1148.55 198.53L1111.31 177.03L1111.31 134.03zM1185.79 177.03L1223.03 198.53L1223.03 241.53L1185.79 263.03L1148.55 241.53L1148.55 198.53zM1185.79 306.03L1223.03 327.53L1223.03 370.53L1185.79 392.03L1148.55 370.53L1148.55 327.53zM1185.79 564.03L1223.03 585.53L1223.03 628.53L1185.79 650.03L1148.55 628.53L1148.55 585.53zM1148.55 1015.53L1185.79 1037.03L1185.79 1080.03L1148.55 1101.53L1111.31 1080.03L1111.31 1037.03zM1185.79 1080.03L1223.03 1101.53L1223.03 1144.53L1185.79 1166.03L1148.55 1144.53L1148.55 1101.53zM1260.27 177.03L1297.52 198.53L1297.52 241.53L1260.27 263.03L1223.03 241.53L1223.03 198.53zM1223.03 499.53L1260.27 521.03L1260.27 564.03L1223.03 585.53L1185.79 564.03L1185.79 521.03zM1260.27 564.03L1297.52 585.53L1297.52 628.53L1260.27 650.03L1223.03 628.53L1223.03 585.53zM1223.03 886.53L1260.27 908.03L1260.27 951.03L1223.03 972.53L1185.79 951.03L1185.79 908.03zM1334.76 306.03L1372 327.53L1372 370.53L1334.76 392.03L1297.52 370.53L1297.52 327.53zM1334.76 564.03L1372 585.53L1372 628.53L1334.76 650.03L1297.52 628.53L1297.52 585.53zM1334.76 822.03L1372 843.53L1372 886.53L1334.76 908.03L1297.52 886.53L1297.52 843.53zM1334.76 951.03L1372 972.53L1372 1015.53L1334.76 1037.03L1297.52 1015.53L1297.52 972.53zM1409.24 48.03L1446.48 69.53L1446.48 112.53L1409.24 134.03L1372 112.53L1372 69.53zM1409.24 177.03L1446.48 198.53L1446.48 241.53L1409.24 263.03L1372 241.53L1372 198.53zM1372 499.53L1409.24 521.03L1409.24 564.03L1372 585.53L1334.76 564.03L1334.76 521.03zM1409.24 1080.03L1446.48 1101.53L1446.48 1144.53L1409.24 1166.03L1372 1144.53L1372 1101.53zM1446.48 112.53L1483.72 134.03L1483.72 177.03L1446.48 198.53L1409.24 177.03L1409.24 134.03zM1483.72 435.03L1520.96 456.53L1520.96 499.53L1483.72 521.03L1446.48 499.53L1446.48 456.53zM1446.48 499.53L1483.72 521.03L1483.72 564.03L1446.48 585.53L1409.24 564.03L1409.24 521.03zM1446.48 628.53L1483.72 650.03L1483.72 693.03L1446.48 714.53L1409.24 693.03L1409.24 650.03zM1483.72 693.03L1520.96 714.53L1520.96 757.53L1483.72 779.03L1446.48 757.53L1446.48 714.53zM1446.48 886.53L1483.72 908.03L1483.72 951.03L1446.48 972.53L1409.24 951.03L1409.24 908.03zM1446.48 1015.53L1483.72 1037.03L1483.72 1080.03L1446.48 1101.53L1409.24 1080.03L1409.24 1037.03zM1520.96 757.53L1558.2 779.03L1558.2 822.03L1520.96 843.53L1483.72 822.03L1483.72 779.03zM1595.44 -16.47L1632.68 5.03L1632.68 48.03L1595.44 69.53L1558.2 48.03L1558.2 5.03zM1595.44 112.53L1632.68 134.03L1632.68 177.03L1595.44 198.53L1558.2 177.03L1558.2 134.03zM1595.44 241.53L1632.68 263.03L1632.68 306.03L1595.44 327.53L1558.2 306.03L1558.2 263.03zM1632.68 306.03L1669.92 327.53L1669.92 370.53L1632.68 392.03L1595.44 370.53L1595.44 327.53zM1595.44 757.53L1632.68 779.03L1632.68 822.03L1595.44 843.53L1558.2 822.03L1558.2 779.03zM1632.68 822.03L1669.92 843.53L1669.92 886.53L1632.68 908.03L1595.44 886.53L1595.44 843.53zM1669.92 241.53L1707.16 263.03L1707.16 306.03L1669.92 327.53L1632.68 306.03L1632.68 263.03zM1669.92 886.53L1707.16 908.03L1707.16 951.03L1669.92 972.53L1632.68 951.03L1632.68 908.03zM1744.4 370.53L1781.64 392.03L1781.64 435.03L1744.4 456.53L1707.16 435.03L1707.16 392.03zM1744.4 499.53L1781.64 521.03L1781.64 564.03L1744.4 585.53L1707.16 564.03L1707.16 521.03zM1744.4 757.53L1781.64 779.03L1781.64 822.03L1744.4 843.53L1707.16 822.03L1707.16 779.03zM1856.12 48.03L1893.36 69.53L1893.36 112.53L1856.12 134.03L1818.88 112.53L1818.88 69.53zM1856.12 177.03L1893.36 198.53L1893.36 241.53L1856.12 263.03L1818.88 241.53L1818.88 198.53zM1856.12 564.03L1893.36 585.53L1893.36 628.53L1856.12 650.03L1818.88 628.53L1818.88 585.53zM1856.12 822.03L1893.36 843.53L1893.36 886.53L1856.12 908.03L1818.88 886.53L1818.88 843.53zM1856.12 951.03L1893.36 972.53L1893.36 1015.53L1856.12 1037.03L1818.88 1015.53L1818.88 972.53zM1893.36 -16.47L1930.6 5.03L1930.6 48.03L1893.36 69.53L1856.12 48.03L1856.12 5.03zM1893.36 112.53L1930.6 134.03L1930.6 177.03L1893.36 198.53L1856.12 177.03L1856.12 134.03zM1930.6 177.03L1967.84 198.53L1967.84 241.53L1930.6 263.03L1893.36 241.53L1893.36 198.53zM1893.36 886.53L1930.6 908.03L1930.6 951.03L1893.36 972.53L1856.12 951.03L1856.12 908.03z" stroke="rgba(0, 0, 0, 0)" stroke-width="2"></path>
        <path d="M27.05 241.53 a4.3 4.3 0 1 0 8.6 0 a4.3 4.3 0 1 0 -8.6 0zM64.29 263.03 a4.3 4.3 0 1 0 8.6 0 a4.3 4.3 0 1 0 -8.6 0zM64.29 306.03 a4.3 4.3 0 1 0 8.6 0 a4.3 4.3 0 1 0 -8.6 0zM27.05 327.53 a4.3 4.3 0 1 0 8.6 0 a4.3 4.3 0 1 0 -8.6 0zM-10.19 306.03 a4.3 4.3 0 1 0 8.6 0 a4.3 4.3 0 1 0 -8.6 0zM-10.19 263.03 a4.3 4.3 0 1 0 8.6 0 a4.3 4.3 0 1 0 -8.6 0zM64.29 693.03 a4.3 4.3 0 1 0 8.6 0 a4.3 4.3 0 1 0 -8.6 0zM101.53 714.53 a4.3 4.3 0 1 0 8.6 0 a4.3 4.3 0 1 0 -8.6 0zM101.53 757.53 a4.3 4.3 0 1 0 8.6 0 a4.3 4.3 0 1 0 -8.6 0zM64.29 779.03 a4.3 4.3 0 1 0 8.6 0 a4.3 4.3 0 1 0 -8.6 0zM27.05 757.53 a4.3 4.3 0 1 0 8.6 0 a4.3 4.3 0 1 0 -8.6 0zM27.05 714.53 a4.3 4.3 0 1 0 8.6 0 a4.3 4.3 0 1 0 -8.6 0zM27.05 886.53 a4.3 4.3 0 1 0 8.6 0 a4.3 4.3 0 1 0 -8.6 0zM64.29 908.03 a4.3 4.3 0 1 0 8.6 0 a4.3 4.3 0 1 0 -8.6 0zM64.29 951.03 a4.3 4.3 0 1 0 8.6 0 a4.3 4.3 0 1 0 -8.6 0zM27.05 972.53 a4.3 4.3 0 1 0 8.6 0 a4.3 4.3 0 1 0 -8.6 0zM-10.19 951.03 a4.3 4.3 0 1 0 8.6 0 a4.3 4.3 0 1 0 -8.6 0zM-10.19 908.03 a4.3 4.3 0 1 0 8.6 0 a4.3 4.3 0 1 0 -8.6 0zM64.29 1080.03 a4.3 4.3 0 1 0 8.6 0 a4.3 4.3 0 1 0 -8.6 0zM101.53 1101.53 a4.3 4.3 0 1 0 8.6 0 a4.3 4.3 0 1 0 -8.6 0zM101.53 1144.53 a4.3 4.3 0 1 0 8.6 0 a4.3 4.3 0 1 0 -8.6 0zM64.29 1166.03 a4.3 4.3 0 1 0 8.6 0 a4.3 4.3 0 1 0 -8.6 0zM27.05 1144.53 a4.3 4.3 0 1 0 8.6 0 a4.3 4.3 0 1 0 -8.6 0zM27.05 1101.53 a4.3 4.3 0 1 0 8.6 0 a4.3 4.3 0 1 0 -8.6 0zM138.77 306.03 a4.3 4.3 0 1 0 8.6 0 a4.3 4.3 0 1 0 -8.6 0zM176.01 327.53 a4.3 4.3 0 1 0 8.6 0 a4.3 4.3 0 1 0 -8.6 0zM176.01 370.53 a4.3 4.3 0 1 0 8.6 0 a4.3 4.3 0 1 0 -8.6 0zM138.77 392.03 a4.3 4.3 0 1 0 8.6 0 a4.3 4.3 0 1 0 -8.6 0zM101.53 370.53 a4.3 4.3 0 1 0 8.6 0 a4.3 4.3 0 1 0 -8.6 0zM101.53 327.53 a4.3 4.3 0 1 0 8.6 0 a4.3 4.3 0 1 0 -8.6 0zM138.77 435.03 a4.3 4.3 0 1 0 8.6 0 a4.3 4.3 0 1 0 -8.6 0zM101.53 456.53 a4.3 4.3 0 1 0 8.6 0 a4.3 4.3 0 1 0 -8.6 0zM64.29 435.03 a4.3 4.3 0 1 0 8.6 0 a4.3 4.3 0 1 0 -8.6 0zM64.29 392.03 a4.3 4.3 0 1 0 8.6 0 a4.3 4.3 0 1 0 -8.6 0zM176.01 -16.47 a4.3 4.3 0 1 0 8.6 0 a4.3 4.3 0 1 0 -8.6 0zM213.25 5.03 a4.3 4.3 0 1 0 8.6 0 a4.3 4.3 0 1 0 -8.6 0zM213.25 48.03 a4.3 4.3 0 1 0 8.6 0 a4.3 4.3 0 1 0 -8.6 0zM176.01 69.53 a4.3 4.3 0 1 0 8.6 0 a4.3 4.3 0 1 0 -8.6 0zM138.77 48.03 a4.3 4.3 0 1 0 8.6 0 a4.3 4.3 0 1 0 -8.6 0zM138.77 5.03 a4.3 4.3 0 1 0 8.6 0 a4.3 4.3 0 1 0 -8.6 0zM213.25 822.03 a4.3 4.3 0 1 0 8.6 0 a4.3 4.3 0 1 0 -8.6 0zM250.49 843.53 a4.3 4.3 0 1 0 8.6 0 a4.3 4.3 0 1 0 -8.6 0zM250.49 886.53 a4.3 4.3 0 1 0 8.6 0 a4.3 4.3 0 1 0 -8.6 0zM213.25 908.03 a4.3 4.3 0 1 0 8.6 0 a4.3 4.3 0 1 0 -8.6 0zM176.01 886.53 a4.3 4.3 0 1 0 8.6 0 a4.3 4.3 0 1 0 -8.6 0zM176.01 843.53 a4.3 4.3 0 1 0 8.6 0 a4.3 4.3 0 1 0 -8.6 0zM287.73 306.03 a4.3 4.3 0 1 0 8.6 0 a4.3 4.3 0 1 0 -8.6 0zM324.97 327.53 a4.3 4.3 0 1 0 8.6 0 a4.3 4.3 0 1 0 -8.6 0zM324.97 370.53 a4.3 4.3 0 1 0 8.6 0 a4.3 4.3 0 1 0 -8.6 0zM287.73 392.03 a4.3 4.3 0 1 0 8.6 0 a4.3 4.3 0 1 0 -8.6 0zM250.49 370.53 a4.3 4.3 0 1 0 8.6 0 a4.3 4.3 0 1 0 -8.6 0zM250.49 327.53 a4.3 4.3 0 1 0 8.6 0 a4.3 4.3 0 1 0 -8.6 0zM250.49 499.53 a4.3 4.3 0 1 0 8.6 0 a4.3 4.3 0 1 0 -8.6 0zM287.73 521.03 a4.3 4.3 0 1 0 8.6 0 a4.3 4.3 0 1 0 -8.6 0zM287.73 564.03 a4.3 4.3 0 1 0 8.6 0 a4.3 4.3 0 1 0 -8.6 0zM250.49 585.53 a4.3 4.3 0 1 0 8.6 0 a4.3 4.3 0 1 0 -8.6 0zM213.25 564.03 a4.3 4.3 0 1 0 8.6 0 a4.3 4.3 0 1 0 -8.6 0zM213.25 521.03 a4.3 4.3 0 1 0 8.6 0 a4.3 4.3 0 1 0 -8.6 0zM287.73 908.03 a4.3 4.3 0 1 0 8.6 0 a4.3 4.3 0 1 0 -8.6 0zM287.73 951.03 a4.3 4.3 0 1 0 8.6 0 a4.3 4.3 0 1 0 -8.6 0zM250.49 972.53 a4.3 4.3 0 1 0 8.6 0 a4.3 4.3 0 1 0 -8.6 0zM213.25 951.03 a4.3 4.3 0 1 0 8.6 0 a4.3 4.3 0 1 0 -8.6 0zM287.73 1080.03 a4.3 4.3 0 1 0 8.6 0 a4.3 4.3 0 1 0 -8.6 0zM324.97 1101.53 a4.3 4.3 0 1 0 8.6 0 a4.3 4.3 0 1 0 -8.6 0zM324.97 1144.53 a4.3 4.3 0 1 0 8.6 0 a4.3 4.3 0 1 0 -8.6 0zM287.73 1166.03 a4.3 4.3 0 1 0 8.6 0 a4.3 4.3 0 1 0 -8.6 0zM250.49 1144.53 a4.3 4.3 0 1 0 8.6 0 a4.3 4.3 0 1 0 -8.6 0zM250.49 1101.53 a4.3 4.3 0 1 0 8.6 0 a4.3 4.3 0 1 0 -8.6 0zM362.21 564.03 a4.3 4.3 0 1 0 8.6 0 a4.3 4.3 0 1 0 -8.6 0zM399.45 585.53 a4.3 4.3 0 1 0 8.6 0 a4.3 4.3 0 1 0 -8.6 0zM399.45 628.53 a4.3 4.3 0 1 0 8.6 0 a4.3 4.3 0 1 0 -8.6 0zM362.21 650.03 a4.3 4.3 0 1 0 8.6 0 a4.3 4.3 0 1 0 -8.6 0zM324.97 628.53 a4.3 4.3 0 1 0 8.6 0 a4.3 4.3 0 1 0 -8.6 0zM324.97 585.53 a4.3 4.3 0 1 0 8.6 0 a4.3 4.3 0 1 0 -8.6 0zM362.21 693.03 a4.3 4.3 0 1 0 8.6 0 a4.3 4.3 0 1 0 -8.6 0zM399.45 714.53 a4.3 4.3 0 1 0 8.6 0 a4.3 4.3 0 1 0 -8.6 0zM399.45 757.53 a4.3 4.3 0 1 0 8.6 0 a4.3 4.3 0 1 0 -8.6 0zM362.21 779.03 a4.3 4.3 0 1 0 8.6 0 a4.3 4.3 0 1 0 -8.6 0zM324.97 757.53 a4.3 4.3 0 1 0 8.6 0 a4.3 4.3 0 1 0 -8.6 0zM324.97 714.53 a4.3 4.3 0 1 0 8.6 0 a4.3 4.3 0 1 0 -8.6 0zM399.45 -16.47 a4.3 4.3 0 1 0 8.6 0 a4.3 4.3 0 1 0 -8.6 0zM436.69 5.03 a4.3 4.3 0 1 0 8.6 0 a4.3 4.3 0 1 0 -8.6 0zM436.69 48.03 a4.3 4.3 0 1 0 8.6 0 a4.3 4.3 0 1 0 -8.6 0zM399.45 69.53 a4.3 4.3 0 1 0 8.6 0 a4.3 4.3 0 1 0 -8.6 0zM362.21 48.03 a4.3 4.3 0 1 0 8.6 0 a4.3 4.3 0 1 0 -8.6 0zM362.21 5.03 a4.3 4.3 0 1 0 8.6 0 a4.3 4.3 0 1 0 -8.6 0zM473.93 69.53 a4.3 4.3 0 1 0 8.6 0 a4.3 4.3 0 1 0 -8.6 0zM473.93 112.53 a4.3 4.3 0 1 0 8.6 0 a4.3 4.3 0 1 0 -8.6 0zM436.69 134.03 a4.3 4.3 0 1 0 8.6 0 a4.3 4.3 0 1 0 -8.6 0zM399.45 112.53 a4.3 4.3 0 1 0 8.6 0 a4.3 4.3 0 1 0 -8.6 0zM436.69 177.03 a4.3 4.3 0 1 0 8.6 0 a4.3 4.3 0 1 0 -8.6 0zM399.45 198.53 a4.3 4.3 0 1 0 8.6 0 a4.3 4.3 0 1 0 -8.6 0zM362.21 177.03 a4.3 4.3 0 1 0 8.6 0 a4.3 4.3 0 1 0 -8.6 0zM362.21 134.03 a4.3 4.3 0 1 0 8.6 0 a4.3 4.3 0 1 0 -8.6 0zM399.45 370.53 a4.3 4.3 0 1 0 8.6 0 a4.3 4.3 0 1 0 -8.6 0zM436.69 392.03 a4.3 4.3 0 1 0 8.6 0 a4.3 4.3 0 1 0 -8.6 0zM436.69 435.03 a4.3 4.3 0 1 0 8.6 0 a4.3 4.3 0 1 0 -8.6 0zM399.45 456.53 a4.3 4.3 0 1 0 8.6 0 a4.3 4.3 0 1 0 -8.6 0zM362.21 435.03 a4.3 4.3 0 1 0 8.6 0 a4.3 4.3 0 1 0 -8.6 0zM362.21 392.03 a4.3 4.3 0 1 0 8.6 0 a4.3 4.3 0 1 0 -8.6 0zM399.45 499.53 a4.3 4.3 0 1 0 8.6 0 a4.3 4.3 0 1 0 -8.6 0zM436.69 521.03 a4.3 4.3 0 1 0 8.6 0 a4.3 4.3 0 1 0 -8.6 0zM436.69 564.03 a4.3 4.3 0 1 0 8.6 0 a4.3 4.3 0 1 0 -8.6 0zM362.21 521.03 a4.3 4.3 0 1 0 8.6 0 a4.3 4.3 0 1 0 -8.6 0zM436.69 650.03 a4.3 4.3 0 1 0 8.6 0 a4.3 4.3 0 1 0 -8.6 0zM436.69 693.03 a4.3 4.3 0 1 0 8.6 0 a4.3 4.3 0 1 0 -8.6 0zM399.45 886.53 a4.3 4.3 0 1 0 8.6 0 a4.3 4.3 0 1 0 -8.6 0zM436.69 908.03 a4.3 4.3 0 1 0 8.6 0 a4.3 4.3 0 1 0 -8.6 0zM436.69 951.03 a4.3 4.3 0 1 0 8.6 0 a4.3 4.3 0 1 0 -8.6 0zM399.45 972.53 a4.3 4.3 0 1 0 8.6 0 a4.3 4.3 0 1 0 -8.6 0zM362.21 951.03 a4.3 4.3 0 1 0 8.6 0 a4.3 4.3 0 1 0 -8.6 0zM362.21 908.03 a4.3 4.3 0 1 0 8.6 0 a4.3 4.3 0 1 0 -8.6 0zM473.93 499.53 a4.3 4.3 0 1 0 8.6 0 a4.3 4.3 0 1 0 -8.6 0zM511.17 521.03 a4.3 4.3 0 1 0 8.6 0 a4.3 4.3 0 1 0 -8.6 0zM511.17 564.03 a4.3 4.3 0 1 0 8.6 0 a4.3 4.3 0 1 0 -8.6 0zM473.93 585.53 a4.3 4.3 0 1 0 8.6 0 a4.3 4.3 0 1 0 -8.6 0zM548.41 585.53 a4.3 4.3 0 1 0 8.6 0 a4.3 4.3 0 1 0 -8.6 0zM548.41 628.53 a4.3 4.3 0 1 0 8.6 0 a4.3 4.3 0 1 0 -8.6 0zM511.17 650.03 a4.3 4.3 0 1 0 8.6 0 a4.3 4.3 0 1 0 -8.6 0zM473.93 628.53 a4.3 4.3 0 1 0 8.6 0 a4.3 4.3 0 1 0 -8.6 0zM473.93 757.53 a4.3 4.3 0 1 0 8.6 0 a4.3 4.3 0 1 0 -8.6 0zM511.17 779.03 a4.3 4.3 0 1 0 8.6 0 a4.3 4.3 0 1 0 -8.6 0zM511.17 822.03 a4.3 4.3 0 1 0 8.6 0 a4.3 4.3 0 1 0 -8.6 0zM473.93 843.53 a4.3 4.3 0 1 0 8.6 0 a4.3 4.3 0 1 0 -8.6 0zM436.69 822.03 a4.3 4.3 0 1 0 8.6 0 a4.3 4.3 0 1 0 -8.6 0zM436.69 779.03 a4.3 4.3 0 1 0 8.6 0 a4.3 4.3 0 1 0 -8.6 0zM473.93 886.53 a4.3 4.3 0 1 0 8.6 0 a4.3 4.3 0 1 0 -8.6 0zM511.17 908.03 a4.3 4.3 0 1 0 8.6 0 a4.3 4.3 0 1 0 -8.6 0zM511.17 951.03 a4.3 4.3 0 1 0 8.6 0 a4.3 4.3 0 1 0 -8.6 0zM473.93 972.53 a4.3 4.3 0 1 0 8.6 0 a4.3 4.3 0 1 0 -8.6 0zM473.93 1015.53 a4.3 4.3 0 1 0 8.6 0 a4.3 4.3 0 1 0 -8.6 0zM511.17 1037.03 a4.3 4.3 0 1 0 8.6 0 a4.3 4.3 0 1 0 -8.6 0zM511.17 1080.03 a4.3 4.3 0 1 0 8.6 0 a4.3 4.3 0 1 0 -8.6 0zM473.93 1101.53 a4.3 4.3 0 1 0 8.6 0 a4.3 4.3 0 1 0 -8.6 0zM436.69 1080.03 a4.3 4.3 0 1 0 8.6 0 a4.3 4.3 0 1 0 -8.6 0zM436.69 1037.03 a4.3 4.3 0 1 0 8.6 0 a4.3 4.3 0 1 0 -8.6 0zM548.41 -16.47 a4.3 4.3 0 1 0 8.6 0 a4.3 4.3 0 1 0 -8.6 0zM585.65 5.03 a4.3 4.3 0 1 0 8.6 0 a4.3 4.3 0 1 0 -8.6 0zM585.65 48.03 a4.3 4.3 0 1 0 8.6 0 a4.3 4.3 0 1 0 -8.6 0zM548.41 69.53 a4.3 4.3 0 1 0 8.6 0 a4.3 4.3 0 1 0 -8.6 0zM511.17 48.03 a4.3 4.3 0 1 0 8.6 0 a4.3 4.3 0 1 0 -8.6 0zM511.17 5.03 a4.3 4.3 0 1 0 8.6 0 a4.3 4.3 0 1 0 -8.6 0zM622.89 69.53 a4.3 4.3 0 1 0 8.6 0 a4.3 4.3 0 1 0 -8.6 0zM622.89 112.53 a4.3 4.3 0 1 0 8.6 0 a4.3 4.3 0 1 0 -8.6 0zM585.65 134.03 a4.3 4.3 0 1 0 8.6 0 a4.3 4.3 0 1 0 -8.6 0zM548.41 112.53 a4.3 4.3 0 1 0 8.6 0 a4.3 4.3 0 1 0 -8.6 0zM548.41 757.53 a4.3 4.3 0 1 0 8.6 0 a4.3 4.3 0 1 0 -8.6 0zM585.65 779.03 a4.3 4.3 0 1 0 8.6 0 a4.3 4.3 0 1 0 -8.6 0zM585.65 822.03 a4.3 4.3 0 1 0 8.6 0 a4.3 4.3 0 1 0 -8.6 0zM548.41 843.53 a4.3 4.3 0 1 0 8.6 0 a4.3 4.3 0 1 0 -8.6 0zM660.13 564.03 a4.3 4.3 0 1 0 8.6 0 a4.3 4.3 0 1 0 -8.6 0zM697.37 585.53 a4.3 4.3 0 1 0 8.6 0 a4.3 4.3 0 1 0 -8.6 0zM697.37 628.53 a4.3 4.3 0 1 0 8.6 0 a4.3 4.3 0 1 0 -8.6 0zM660.13 650.03 a4.3 4.3 0 1 0 8.6 0 a4.3 4.3 0 1 0 -8.6 0zM622.89 628.53 a4.3 4.3 0 1 0 8.6 0 a4.3 4.3 0 1 0 -8.6 0zM622.89 585.53 a4.3 4.3 0 1 0 8.6 0 a4.3 4.3 0 1 0 -8.6 0zM622.89 1015.53 a4.3 4.3 0 1 0 8.6 0 a4.3 4.3 0 1 0 -8.6 0zM660.13 1037.03 a4.3 4.3 0 1 0 8.6 0 a4.3 4.3 0 1 0 -8.6 0zM660.13 1080.03 a4.3 4.3 0 1 0 8.6 0 a4.3 4.3 0 1 0 -8.6 0zM622.89 1101.53 a4.3 4.3 0 1 0 8.6 0 a4.3 4.3 0 1 0 -8.6 0zM585.65 1080.03 a4.3 4.3 0 1 0 8.6 0 a4.3 4.3 0 1 0 -8.6 0zM585.65 1037.03 a4.3 4.3 0 1 0 8.6 0 a4.3 4.3 0 1 0 -8.6 0zM697.37 -16.47 a4.3 4.3 0 1 0 8.6 0 a4.3 4.3 0 1 0 -8.6 0zM734.61 5.03 a4.3 4.3 0 1 0 8.6 0 a4.3 4.3 0 1 0 -8.6 0zM734.61 48.03 a4.3 4.3 0 1 0 8.6 0 a4.3 4.3 0 1 0 -8.6 0zM697.37 69.53 a4.3 4.3 0 1 0 8.6 0 a4.3 4.3 0 1 0 -8.6 0zM660.13 48.03 a4.3 4.3 0 1 0 8.6 0 a4.3 4.3 0 1 0 -8.6 0zM660.13 5.03 a4.3 4.3 0 1 0 8.6 0 a4.3 4.3 0 1 0 -8.6 0zM771.85 69.53 a4.3 4.3 0 1 0 8.6 0 a4.3 4.3 0 1 0 -8.6 0zM771.85 112.53 a4.3 4.3 0 1 0 8.6 0 a4.3 4.3 0 1 0 -8.6 0zM734.61 134.03 a4.3 4.3 0 1 0 8.6 0 a4.3 4.3 0 1 0 -8.6 0zM697.37 112.53 a4.3 4.3 0 1 0 8.6 0 a4.3 4.3 0 1 0 -8.6 0zM734.61 177.03 a4.3 4.3 0 1 0 8.6 0 a4.3 4.3 0 1 0 -8.6 0zM771.85 198.53 a4.3 4.3 0 1 0 8.6 0 a4.3 4.3 0 1 0 -8.6 0zM771.85 241.53 a4.3 4.3 0 1 0 8.6 0 a4.3 4.3 0 1 0 -8.6 0zM734.61 263.03 a4.3 4.3 0 1 0 8.6 0 a4.3 4.3 0 1 0 -8.6 0zM697.37 241.53 a4.3 4.3 0 1 0 8.6 0 a4.3 4.3 0 1 0 -8.6 0zM697.37 198.53 a4.3 4.3 0 1 0 8.6 0 a4.3 4.3 0 1 0 -8.6 0zM697.37 370.53 a4.3 4.3 0 1 0 8.6 0 a4.3 4.3 0 1 0 -8.6 0zM734.61 392.03 a4.3 4.3 0 1 0 8.6 0 a4.3 4.3 0 1 0 -8.6 0zM734.61 435.03 a4.3 4.3 0 1 0 8.6 0 a4.3 4.3 0 1 0 -8.6 0zM697.37 456.53 a4.3 4.3 0 1 0 8.6 0 a4.3 4.3 0 1 0 -8.6 0zM660.13 435.03 a4.3 4.3 0 1 0 8.6 0 a4.3 4.3 0 1 0 -8.6 0zM660.13 392.03 a4.3 4.3 0 1 0 8.6 0 a4.3 4.3 0 1 0 -8.6 0zM734.61 822.03 a4.3 4.3 0 1 0 8.6 0 a4.3 4.3 0 1 0 -8.6 0zM771.85 843.53 a4.3 4.3 0 1 0 8.6 0 a4.3 4.3 0 1 0 -8.6 0zM771.85 886.53 a4.3 4.3 0 1 0 8.6 0 a4.3 4.3 0 1 0 -8.6 0zM734.61 908.03 a4.3 4.3 0 1 0 8.6 0 a4.3 4.3 0 1 0 -8.6 0zM697.37 886.53 a4.3 4.3 0 1 0 8.6 0 a4.3 4.3 0 1 0 -8.6 0zM697.37 843.53 a4.3 4.3 0 1 0 8.6 0 a4.3 4.3 0 1 0 -8.6 0zM734.61 951.03 a4.3 4.3 0 1 0 8.6 0 a4.3 4.3 0 1 0 -8.6 0zM771.85 972.53 a4.3 4.3 0 1 0 8.6 0 a4.3 4.3 0 1 0 -8.6 0zM771.85 1015.53 a4.3 4.3 0 1 0 8.6 0 a4.3 4.3 0 1 0 -8.6 0zM734.61 1037.03 a4.3 4.3 0 1 0 8.6 0 a4.3 4.3 0 1 0 -8.6 0zM697.37 1015.53 a4.3 4.3 0 1 0 8.6 0 a4.3 4.3 0 1 0 -8.6 0zM697.37 972.53 a4.3 4.3 0 1 0 8.6 0 a4.3 4.3 0 1 0 -8.6 0zM809.09 177.03 a4.3 4.3 0 1 0 8.6 0 a4.3 4.3 0 1 0 -8.6 0zM846.33 198.53 a4.3 4.3 0 1 0 8.6 0 a4.3 4.3 0 1 0 -8.6 0zM846.33 241.53 a4.3 4.3 0 1 0 8.6 0 a4.3 4.3 0 1 0 -8.6 0zM809.09 263.03 a4.3 4.3 0 1 0 8.6 0 a4.3 4.3 0 1 0 -8.6 0zM809.09 306.03 a4.3 4.3 0 1 0 8.6 0 a4.3 4.3 0 1 0 -8.6 0zM846.33 327.53 a4.3 4.3 0 1 0 8.6 0 a4.3 4.3 0 1 0 -8.6 0zM846.33 370.53 a4.3 4.3 0 1 0 8.6 0 a4.3 4.3 0 1 0 -8.6 0zM809.09 392.03 a4.3 4.3 0 1 0 8.6 0 a4.3 4.3 0 1 0 -8.6 0zM771.85 370.53 a4.3 4.3 0 1 0 8.6 0 a4.3 4.3 0 1 0 -8.6 0zM771.85 327.53 a4.3 4.3 0 1 0 8.6 0 a4.3 4.3 0 1 0 -8.6 0zM771.85 628.53 a4.3 4.3 0 1 0 8.6 0 a4.3 4.3 0 1 0 -8.6 0zM809.09 650.03 a4.3 4.3 0 1 0 8.6 0 a4.3 4.3 0 1 0 -8.6 0zM809.09 693.03 a4.3 4.3 0 1 0 8.6 0 a4.3 4.3 0 1 0 -8.6 0zM771.85 714.53 a4.3 4.3 0 1 0 8.6 0 a4.3 4.3 0 1 0 -8.6 0zM734.61 693.03 a4.3 4.3 0 1 0 8.6 0 a4.3 4.3 0 1 0 -8.6 0zM734.61 650.03 a4.3 4.3 0 1 0 8.6 0 a4.3 4.3 0 1 0 -8.6 0zM809.09 822.03 a4.3 4.3 0 1 0 8.6 0 a4.3 4.3 0 1 0 -8.6 0zM846.33 843.53 a4.3 4.3 0 1 0 8.6 0 a4.3 4.3 0 1 0 -8.6 0zM846.33 886.53 a4.3 4.3 0 1 0 8.6 0 a4.3 4.3 0 1 0 -8.6 0zM809.09 908.03 a4.3 4.3 0 1 0 8.6 0 a4.3 4.3 0 1 0 -8.6 0zM883.57 48.03 a4.3 4.3 0 1 0 8.6 0 a4.3 4.3 0 1 0 -8.6 0zM920.81 69.53 a4.3 4.3 0 1 0 8.6 0 a4.3 4.3 0 1 0 -8.6 0zM920.81 112.53 a4.3 4.3 0 1 0 8.6 0 a4.3 4.3 0 1 0 -8.6 0zM883.57 134.03 a4.3 4.3 0 1 0 8.6 0 a4.3 4.3 0 1 0 -8.6 0zM846.33 112.53 a4.3 4.3 0 1 0 8.6 0 a4.3 4.3 0 1 0 -8.6 0zM846.33 69.53 a4.3 4.3 0 1 0 8.6 0 a4.3 4.3 0 1 0 -8.6 0zM883.57 306.03 a4.3 4.3 0 1 0 8.6 0 a4.3 4.3 0 1 0 -8.6 0zM920.81 327.53 a4.3 4.3 0 1 0 8.6 0 a4.3 4.3 0 1 0 -8.6 0zM920.81 370.53 a4.3 4.3 0 1 0 8.6 0 a4.3 4.3 0 1 0 -8.6 0zM883.57 392.03 a4.3 4.3 0 1 0 8.6 0 a4.3 4.3 0 1 0 -8.6 0zM883.57 435.03 a4.3 4.3 0 1 0 8.6 0 a4.3 4.3 0 1 0 -8.6 0zM920.81 456.53 a4.3 4.3 0 1 0 8.6 0 a4.3 4.3 0 1 0 -8.6 0zM920.81 499.53 a4.3 4.3 0 1 0 8.6 0 a4.3 4.3 0 1 0 -8.6 0zM883.57 521.03 a4.3 4.3 0 1 0 8.6 0 a4.3 4.3 0 1 0 -8.6 0zM846.33 499.53 a4.3 4.3 0 1 0 8.6 0 a4.3 4.3 0 1 0 -8.6 0zM846.33 456.53 a4.3 4.3 0 1 0 8.6 0 a4.3 4.3 0 1 0 -8.6 0zM883.57 564.03 a4.3 4.3 0 1 0 8.6 0 a4.3 4.3 0 1 0 -8.6 0zM920.81 585.53 a4.3 4.3 0 1 0 8.6 0 a4.3 4.3 0 1 0 -8.6 0zM920.81 628.53 a4.3 4.3 0 1 0 8.6 0 a4.3 4.3 0 1 0 -8.6 0zM883.57 650.03 a4.3 4.3 0 1 0 8.6 0 a4.3 4.3 0 1 0 -8.6 0zM846.33 628.53 a4.3 4.3 0 1 0 8.6 0 a4.3 4.3 0 1 0 -8.6 0zM846.33 585.53 a4.3 4.3 0 1 0 8.6 0 a4.3 4.3 0 1 0 -8.6 0zM883.57 822.03 a4.3 4.3 0 1 0 8.6 0 a4.3 4.3 0 1 0 -8.6 0zM920.81 843.53 a4.3 4.3 0 1 0 8.6 0 a4.3 4.3 0 1 0 -8.6 0zM920.81 886.53 a4.3 4.3 0 1 0 8.6 0 a4.3 4.3 0 1 0 -8.6 0zM883.57 908.03 a4.3 4.3 0 1 0 8.6 0 a4.3 4.3 0 1 0 -8.6 0zM883.57 951.03 a4.3 4.3 0 1 0 8.6 0 a4.3 4.3 0 1 0 -8.6 0zM920.81 972.53 a4.3 4.3 0 1 0 8.6 0 a4.3 4.3 0 1 0 -8.6 0zM920.81 1015.53 a4.3 4.3 0 1 0 8.6 0 a4.3 4.3 0 1 0 -8.6 0zM883.57 1037.03 a4.3 4.3 0 1 0 8.6 0 a4.3 4.3 0 1 0 -8.6 0zM846.33 1015.53 a4.3 4.3 0 1 0 8.6 0 a4.3 4.3 0 1 0 -8.6 0zM846.33 972.53 a4.3 4.3 0 1 0 8.6 0 a4.3 4.3 0 1 0 -8.6 0zM883.57 1080.03 a4.3 4.3 0 1 0 8.6 0 a4.3 4.3 0 1 0 -8.6 0zM846.33 1101.53 a4.3 4.3 0 1 0 8.6 0 a4.3 4.3 0 1 0 -8.6 0zM809.09 1080.03 a4.3 4.3 0 1 0 8.6 0 a4.3 4.3 0 1 0 -8.6 0zM809.09 1037.03 a4.3 4.3 0 1 0 8.6 0 a4.3 4.3 0 1 0 -8.6 0zM958.05 48.03 a4.3 4.3 0 1 0 8.6 0 a4.3 4.3 0 1 0 -8.6 0zM995.29 69.53 a4.3 4.3 0 1 0 8.6 0 a4.3 4.3 0 1 0 -8.6 0zM995.29 112.53 a4.3 4.3 0 1 0 8.6 0 a4.3 4.3 0 1 0 -8.6 0zM958.05 134.03 a4.3 4.3 0 1 0 8.6 0 a4.3 4.3 0 1 0 -8.6 0zM958.05 306.03 a4.3 4.3 0 1 0 8.6 0 a4.3 4.3 0 1 0 -8.6 0zM995.29 327.53 a4.3 4.3 0 1 0 8.6 0 a4.3 4.3 0 1 0 -8.6 0zM995.29 370.53 a4.3 4.3 0 1 0 8.6 0 a4.3 4.3 0 1 0 -8.6 0zM958.05 392.03 a4.3 4.3 0 1 0 8.6 0 a4.3 4.3 0 1 0 -8.6 0zM958.05 564.03 a4.3 4.3 0 1 0 8.6 0 a4.3 4.3 0 1 0 -8.6 0zM995.29 585.53 a4.3 4.3 0 1 0 8.6 0 a4.3 4.3 0 1 0 -8.6 0zM995.29 628.53 a4.3 4.3 0 1 0 8.6 0 a4.3 4.3 0 1 0 -8.6 0zM958.05 650.03 a4.3 4.3 0 1 0 8.6 0 a4.3 4.3 0 1 0 -8.6 0zM1032.53 48.03 a4.3 4.3 0 1 0 8.6 0 a4.3 4.3 0 1 0 -8.6 0zM1069.77 69.53 a4.3 4.3 0 1 0 8.6 0 a4.3 4.3 0 1 0 -8.6 0zM1069.77 112.53 a4.3 4.3 0 1 0 8.6 0 a4.3 4.3 0 1 0 -8.6 0zM1032.53 134.03 a4.3 4.3 0 1 0 8.6 0 a4.3 4.3 0 1 0 -8.6 0zM995.29 499.53 a4.3 4.3 0 1 0 8.6 0 a4.3 4.3 0 1 0 -8.6 0zM1032.53 521.03 a4.3 4.3 0 1 0 8.6 0 a4.3 4.3 0 1 0 -8.6 0zM1032.53 564.03 a4.3 4.3 0 1 0 8.6 0 a4.3 4.3 0 1 0 -8.6 0zM958.05 521.03 a4.3 4.3 0 1 0 8.6 0 a4.3 4.3 0 1 0 -8.6 0zM995.29 757.53 a4.3 4.3 0 1 0 8.6 0 a4.3 4.3 0 1 0 -8.6 0zM1032.53 779.03 a4.3 4.3 0 1 0 8.6 0 a4.3 4.3 0 1 0 -8.6 0zM1032.53 822.03 a4.3 4.3 0 1 0 8.6 0 a4.3 4.3 0 1 0 -8.6 0zM995.29 843.53 a4.3 4.3 0 1 0 8.6 0 a4.3 4.3 0 1 0 -8.6 0zM958.05 822.03 a4.3 4.3 0 1 0 8.6 0 a4.3 4.3 0 1 0 -8.6 0zM958.05 779.03 a4.3 4.3 0 1 0 8.6 0 a4.3 4.3 0 1 0 -8.6 0zM995.29 886.53 a4.3 4.3 0 1 0 8.6 0 a4.3 4.3 0 1 0 -8.6 0zM1032.53 908.03 a4.3 4.3 0 1 0 8.6 0 a4.3 4.3 0 1 0 -8.6 0zM1032.53 951.03 a4.3 4.3 0 1 0 8.6 0 a4.3 4.3 0 1 0 -8.6 0zM995.29 972.53 a4.3 4.3 0 1 0 8.6 0 a4.3 4.3 0 1 0 -8.6 0zM958.05 951.03 a4.3 4.3 0 1 0 8.6 0 a4.3 4.3 0 1 0 -8.6 0zM958.05 908.03 a4.3 4.3 0 1 0 8.6 0 a4.3 4.3 0 1 0 -8.6 0zM1069.77 -16.47 a4.3 4.3 0 1 0 8.6 0 a4.3 4.3 0 1 0 -8.6 0zM1107.01 5.03 a4.3 4.3 0 1 0 8.6 0 a4.3 4.3 0 1 0 -8.6 0zM1107.01 48.03 a4.3 4.3 0 1 0 8.6 0 a4.3 4.3 0 1 0 -8.6 0zM1032.53 5.03 a4.3 4.3 0 1 0 8.6 0 a4.3 4.3 0 1 0 -8.6 0zM1107.01 134.03 a4.3 4.3 0 1 0 8.6 0 a4.3 4.3 0 1 0 -8.6 0zM1107.01 177.03 a4.3 4.3 0 1 0 8.6 0 a4.3 4.3 0 1 0 -8.6 0zM1069.77 198.53 a4.3 4.3 0 1 0 8.6 0 a4.3 4.3 0 1 0 -8.6 0zM1032.53 177.03 a4.3 4.3 0 1 0 8.6 0 a4.3 4.3 0 1 0 -8.6 0zM1069.77 628.53 a4.3 4.3 0 1 0 8.6 0 a4.3 4.3 0 1 0 -8.6 0zM1107.01 650.03 a4.3 4.3 0 1 0 8.6 0 a4.3 4.3 0 1 0 -8.6 0zM1107.01 693.03 a4.3 4.3 0 1 0 8.6 0 a4.3 4.3 0 1 0 -8.6 0zM1069.77 714.53 a4.3 4.3 0 1 0 8.6 0 a4.3 4.3 0 1 0 -8.6 0zM1032.53 693.03 a4.3 4.3 0 1 0 8.6 0 a4.3 4.3 0 1 0 -8.6 0zM1032.53 650.03 a4.3 4.3 0 1 0 8.6 0 a4.3 4.3 0 1 0 -8.6 0zM1107.01 822.03 a4.3 4.3 0 1 0 8.6 0 a4.3 4.3 0 1 0 -8.6 0zM1144.25 843.53 a4.3 4.3 0 1 0 8.6 0 a4.3 4.3 0 1 0 -8.6 0zM1144.25 886.53 a4.3 4.3 0 1 0 8.6 0 a4.3 4.3 0 1 0 -8.6 0zM1107.01 908.03 a4.3 4.3 0 1 0 8.6 0 a4.3 4.3 0 1 0 -8.6 0zM1069.77 886.53 a4.3 4.3 0 1 0 8.6 0 a4.3 4.3 0 1 0 -8.6 0zM1069.77 843.53 a4.3 4.3 0 1 0 8.6 0 a4.3 4.3 0 1 0 -8.6 0zM1107.01 951.03 a4.3 4.3 0 1 0 8.6 0 a4.3 4.3 0 1 0 -8.6 0zM1144.25 972.53 a4.3 4.3 0 1 0 8.6 0 a4.3 4.3 0 1 0 -8.6 0zM1144.25 1015.53 a4.3 4.3 0 1 0 8.6 0 a4.3 4.3 0 1 0 -8.6 0zM1107.01 1037.03 a4.3 4.3 0 1 0 8.6 0 a4.3 4.3 0 1 0 -8.6 0zM1069.77 1015.53 a4.3 4.3 0 1 0 8.6 0 a4.3 4.3 0 1 0 -8.6 0zM1069.77 972.53 a4.3 4.3 0 1 0 8.6 0 a4.3 4.3 0 1 0 -8.6 0zM1107.01 1080.03 a4.3 4.3 0 1 0 8.6 0 a4.3 4.3 0 1 0 -8.6 0zM1144.25 1101.53 a4.3 4.3 0 1 0 8.6 0 a4.3 4.3 0 1 0 -8.6 0zM1144.25 1144.53 a4.3 4.3 0 1 0 8.6 0 a4.3 4.3 0 1 0 -8.6 0zM1107.01 1166.03 a4.3 4.3 0 1 0 8.6 0 a4.3 4.3 0 1 0 -8.6 0zM1069.77 1144.53 a4.3 4.3 0 1 0 8.6 0 a4.3 4.3 0 1 0 -8.6 0zM1069.77 1101.53 a4.3 4.3 0 1 0 8.6 0 a4.3 4.3 0 1 0 -8.6 0zM1144.25 112.53 a4.3 4.3 0 1 0 8.6 0 a4.3 4.3 0 1 0 -8.6 0zM1181.49 134.03 a4.3 4.3 0 1 0 8.6 0 a4.3 4.3 0 1 0 -8.6 0zM1181.49 177.03 a4.3 4.3 0 1 0 8.6 0 a4.3 4.3 0 1 0 -8.6 0zM1144.25 198.53 a4.3 4.3 0 1 0 8.6 0 a4.3 4.3 0 1 0 -8.6 0zM1218.73 198.53 a4.3 4.3 0 1 0 8.6 0 a4.3 4.3 0 1 0 -8.6 0zM1218.73 241.53 a4.3 4.3 0 1 0 8.6 0 a4.3 4.3 0 1 0 -8.6 0zM1181.49 263.03 a4.3 4.3 0 1 0 8.6 0 a4.3 4.3 0 1 0 -8.6 0zM1144.25 241.53 a4.3 4.3 0 1 0 8.6 0 a4.3 4.3 0 1 0 -8.6 0zM1181.49 306.03 a4.3 4.3 0 1 0 8.6 0 a4.3 4.3 0 1 0 -8.6 0zM1218.73 327.53 a4.3 4.3 0 1 0 8.6 0 a4.3 4.3 0 1 0 -8.6 0zM1218.73 370.53 a4.3 4.3 0 1 0 8.6 0 a4.3 4.3 0 1 0 -8.6 0zM1181.49 392.03 a4.3 4.3 0 1 0 8.6 0 a4.3 4.3 0 1 0 -8.6 0zM1144.25 370.53 a4.3 4.3 0 1 0 8.6 0 a4.3 4.3 0 1 0 -8.6 0zM1144.25 327.53 a4.3 4.3 0 1 0 8.6 0 a4.3 4.3 0 1 0 -8.6 0zM1181.49 564.03 a4.3 4.3 0 1 0 8.6 0 a4.3 4.3 0 1 0 -8.6 0zM1218.73 585.53 a4.3 4.3 0 1 0 8.6 0 a4.3 4.3 0 1 0 -8.6 0zM1218.73 628.53 a4.3 4.3 0 1 0 8.6 0 a4.3 4.3 0 1 0 -8.6 0zM1181.49 650.03 a4.3 4.3 0 1 0 8.6 0 a4.3 4.3 0 1 0 -8.6 0zM1144.25 628.53 a4.3 4.3 0 1 0 8.6 0 a4.3 4.3 0 1 0 -8.6 0zM1144.25 585.53 a4.3 4.3 0 1 0 8.6 0 a4.3 4.3 0 1 0 -8.6 0zM1181.49 1037.03 a4.3 4.3 0 1 0 8.6 0 a4.3 4.3 0 1 0 -8.6 0zM1181.49 1080.03 a4.3 4.3 0 1 0 8.6 0 a4.3 4.3 0 1 0 -8.6 0zM1218.73 1101.53 a4.3 4.3 0 1 0 8.6 0 a4.3 4.3 0 1 0 -8.6 0zM1218.73 1144.53 a4.3 4.3 0 1 0 8.6 0 a4.3 4.3 0 1 0 -8.6 0zM1181.49 1166.03 a4.3 4.3 0 1 0 8.6 0 a4.3 4.3 0 1 0 -8.6 0zM1255.97 177.03 a4.3 4.3 0 1 0 8.6 0 a4.3 4.3 0 1 0 -8.6 0zM1293.22 198.53 a4.3 4.3 0 1 0 8.6 0 a4.3 4.3 0 1 0 -8.6 0zM1293.22 241.53 a4.3 4.3 0 1 0 8.6 0 a4.3 4.3 0 1 0 -8.6 0zM1255.97 263.03 a4.3 4.3 0 1 0 8.6 0 a4.3 4.3 0 1 0 -8.6 0zM1218.73 499.53 a4.3 4.3 0 1 0 8.6 0 a4.3 4.3 0 1 0 -8.6 0zM1255.97 521.03 a4.3 4.3 0 1 0 8.6 0 a4.3 4.3 0 1 0 -8.6 0zM1255.97 564.03 a4.3 4.3 0 1 0 8.6 0 a4.3 4.3 0 1 0 -8.6 0zM1181.49 521.03 a4.3 4.3 0 1 0 8.6 0 a4.3 4.3 0 1 0 -8.6 0zM1293.22 585.53 a4.3 4.3 0 1 0 8.6 0 a4.3 4.3 0 1 0 -8.6 0zM1293.22 628.53 a4.3 4.3 0 1 0 8.6 0 a4.3 4.3 0 1 0 -8.6 0zM1255.97 650.03 a4.3 4.3 0 1 0 8.6 0 a4.3 4.3 0 1 0 -8.6 0zM1218.73 886.53 a4.3 4.3 0 1 0 8.6 0 a4.3 4.3 0 1 0 -8.6 0zM1255.97 908.03 a4.3 4.3 0 1 0 8.6 0 a4.3 4.3 0 1 0 -8.6 0zM1255.97 951.03 a4.3 4.3 0 1 0 8.6 0 a4.3 4.3 0 1 0 -8.6 0zM1218.73 972.53 a4.3 4.3 0 1 0 8.6 0 a4.3 4.3 0 1 0 -8.6 0zM1181.49 951.03 a4.3 4.3 0 1 0 8.6 0 a4.3 4.3 0 1 0 -8.6 0zM1181.49 908.03 a4.3 4.3 0 1 0 8.6 0 a4.3 4.3 0 1 0 -8.6 0zM1330.46 306.03 a4.3 4.3 0 1 0 8.6 0 a4.3 4.3 0 1 0 -8.6 0zM1367.7 327.53 a4.3 4.3 0 1 0 8.6 0 a4.3 4.3 0 1 0 -8.6 0zM1367.7 370.53 a4.3 4.3 0 1 0 8.6 0 a4.3 4.3 0 1 0 -8.6 0zM1330.46 392.03 a4.3 4.3 0 1 0 8.6 0 a4.3 4.3 0 1 0 -8.6 0zM1293.22 370.53 a4.3 4.3 0 1 0 8.6 0 a4.3 4.3 0 1 0 -8.6 0zM1293.22 327.53 a4.3 4.3 0 1 0 8.6 0 a4.3 4.3 0 1 0 -8.6 0zM1330.46 564.03 a4.3 4.3 0 1 0 8.6 0 a4.3 4.3 0 1 0 -8.6 0zM1367.7 585.53 a4.3 4.3 0 1 0 8.6 0 a4.3 4.3 0 1 0 -8.6 0zM1367.7 628.53 a4.3 4.3 0 1 0 8.6 0 a4.3 4.3 0 1 0 -8.6 0zM1330.46 650.03 a4.3 4.3 0 1 0 8.6 0 a4.3 4.3 0 1 0 -8.6 0zM1330.46 822.03 a4.3 4.3 0 1 0 8.6 0 a4.3 4.3 0 1 0 -8.6 0zM1367.7 843.53 a4.3 4.3 0 1 0 8.6 0 a4.3 4.3 0 1 0 -8.6 0zM1367.7 886.53 a4.3 4.3 0 1 0 8.6 0 a4.3 4.3 0 1 0 -8.6 0zM1330.46 908.03 a4.3 4.3 0 1 0 8.6 0 a4.3 4.3 0 1 0 -8.6 0zM1293.22 886.53 a4.3 4.3 0 1 0 8.6 0 a4.3 4.3 0 1 0 -8.6 0zM1293.22 843.53 a4.3 4.3 0 1 0 8.6 0 a4.3 4.3 0 1 0 -8.6 0zM1330.46 951.03 a4.3 4.3 0 1 0 8.6 0 a4.3 4.3 0 1 0 -8.6 0zM1367.7 972.53 a4.3 4.3 0 1 0 8.6 0 a4.3 4.3 0 1 0 -8.6 0zM1367.7 1015.53 a4.3 4.3 0 1 0 8.6 0 a4.3 4.3 0 1 0 -8.6 0zM1330.46 1037.03 a4.3 4.3 0 1 0 8.6 0 a4.3 4.3 0 1 0 -8.6 0zM1293.22 1015.53 a4.3 4.3 0 1 0 8.6 0 a4.3 4.3 0 1 0 -8.6 0zM1293.22 972.53 a4.3 4.3 0 1 0 8.6 0 a4.3 4.3 0 1 0 -8.6 0zM1404.94 48.03 a4.3 4.3 0 1 0 8.6 0 a4.3 4.3 0 1 0 -8.6 0zM1442.18 69.53 a4.3 4.3 0 1 0 8.6 0 a4.3 4.3 0 1 0 -8.6 0zM1442.18 112.53 a4.3 4.3 0 1 0 8.6 0 a4.3 4.3 0 1 0 -8.6 0zM1404.94 134.03 a4.3 4.3 0 1 0 8.6 0 a4.3 4.3 0 1 0 -8.6 0zM1367.7 112.53 a4.3 4.3 0 1 0 8.6 0 a4.3 4.3 0 1 0 -8.6 0zM1367.7 69.53 a4.3 4.3 0 1 0 8.6 0 a4.3 4.3 0 1 0 -8.6 0zM1404.94 177.03 a4.3 4.3 0 1 0 8.6 0 a4.3 4.3 0 1 0 -8.6 0zM1442.18 198.53 a4.3 4.3 0 1 0 8.6 0 a4.3 4.3 0 1 0 -8.6 0zM1442.18 241.53 a4.3 4.3 0 1 0 8.6 0 a4.3 4.3 0 1 0 -8.6 0zM1404.94 263.03 a4.3 4.3 0 1 0 8.6 0 a4.3 4.3 0 1 0 -8.6 0zM1367.7 241.53 a4.3 4.3 0 1 0 8.6 0 a4.3 4.3 0 1 0 -8.6 0zM1367.7 198.53 a4.3 4.3 0 1 0 8.6 0 a4.3 4.3 0 1 0 -8.6 0zM1367.7 499.53 a4.3 4.3 0 1 0 8.6 0 a4.3 4.3 0 1 0 -8.6 0zM1404.94 521.03 a4.3 4.3 0 1 0 8.6 0 a4.3 4.3 0 1 0 -8.6 0zM1404.94 564.03 a4.3 4.3 0 1 0 8.6 0 a4.3 4.3 0 1 0 -8.6 0zM1330.46 521.03 a4.3 4.3 0 1 0 8.6 0 a4.3 4.3 0 1 0 -8.6 0zM1404.94 1080.03 a4.3 4.3 0 1 0 8.6 0 a4.3 4.3 0 1 0 -8.6 0zM1442.18 1101.53 a4.3 4.3 0 1 0 8.6 0 a4.3 4.3 0 1 0 -8.6 0zM1442.18 1144.53 a4.3 4.3 0 1 0 8.6 0 a4.3 4.3 0 1 0 -8.6 0zM1404.94 1166.03 a4.3 4.3 0 1 0 8.6 0 a4.3 4.3 0 1 0 -8.6 0zM1367.7 1144.53 a4.3 4.3 0 1 0 8.6 0 a4.3 4.3 0 1 0 -8.6 0zM1367.7 1101.53 a4.3 4.3 0 1 0 8.6 0 a4.3 4.3 0 1 0 -8.6 0zM1479.42 134.03 a4.3 4.3 0 1 0 8.6 0 a4.3 4.3 0 1 0 -8.6 0zM1479.42 177.03 a4.3 4.3 0 1 0 8.6 0 a4.3 4.3 0 1 0 -8.6 0zM1479.42 435.03 a4.3 4.3 0 1 0 8.6 0 a4.3 4.3 0 1 0 -8.6 0zM1516.66 456.53 a4.3 4.3 0 1 0 8.6 0 a4.3 4.3 0 1 0 -8.6 0zM1516.66 499.53 a4.3 4.3 0 1 0 8.6 0 a4.3 4.3 0 1 0 -8.6 0zM1479.42 521.03 a4.3 4.3 0 1 0 8.6 0 a4.3 4.3 0 1 0 -8.6 0zM1442.18 499.53 a4.3 4.3 0 1 0 8.6 0 a4.3 4.3 0 1 0 -8.6 0zM1442.18 456.53 a4.3 4.3 0 1 0 8.6 0 a4.3 4.3 0 1 0 -8.6 0zM1479.42 564.03 a4.3 4.3 0 1 0 8.6 0 a4.3 4.3 0 1 0 -8.6 0zM1442.18 585.53 a4.3 4.3 0 1 0 8.6 0 a4.3 4.3 0 1 0 -8.6 0zM1442.18 628.53 a4.3 4.3 0 1 0 8.6 0 a4.3 4.3 0 1 0 -8.6 0zM1479.42 650.03 a4.3 4.3 0 1 0 8.6 0 a4.3 4.3 0 1 0 -8.6 0zM1479.42 693.03 a4.3 4.3 0 1 0 8.6 0 a4.3 4.3 0 1 0 -8.6 0zM1442.18 714.53 a4.3 4.3 0 1 0 8.6 0 a4.3 4.3 0 1 0 -8.6 0zM1404.94 693.03 a4.3 4.3 0 1 0 8.6 0 a4.3 4.3 0 1 0 -8.6 0zM1404.94 650.03 a4.3 4.3 0 1 0 8.6 0 a4.3 4.3 0 1 0 -8.6 0zM1516.66 714.53 a4.3 4.3 0 1 0 8.6 0 a4.3 4.3 0 1 0 -8.6 0zM1516.66 757.53 a4.3 4.3 0 1 0 8.6 0 a4.3 4.3 0 1 0 -8.6 0zM1479.42 779.03 a4.3 4.3 0 1 0 8.6 0 a4.3 4.3 0 1 0 -8.6 0zM1442.18 757.53 a4.3 4.3 0 1 0 8.6 0 a4.3 4.3 0 1 0 -8.6 0zM1442.18 886.53 a4.3 4.3 0 1 0 8.6 0 a4.3 4.3 0 1 0 -8.6 0zM1479.42 908.03 a4.3 4.3 0 1 0 8.6 0 a4.3 4.3 0 1 0 -8.6 0zM1479.42 951.03 a4.3 4.3 0 1 0 8.6 0 a4.3 4.3 0 1 0 -8.6 0zM1442.18 972.53 a4.3 4.3 0 1 0 8.6 0 a4.3 4.3 0 1 0 -8.6 0zM1404.94 951.03 a4.3 4.3 0 1 0 8.6 0 a4.3 4.3 0 1 0 -8.6 0zM1404.94 908.03 a4.3 4.3 0 1 0 8.6 0 a4.3 4.3 0 1 0 -8.6 0zM1442.18 1015.53 a4.3 4.3 0 1 0 8.6 0 a4.3 4.3 0 1 0 -8.6 0zM1479.42 1037.03 a4.3 4.3 0 1 0 8.6 0 a4.3 4.3 0 1 0 -8.6 0zM1479.42 1080.03 a4.3 4.3 0 1 0 8.6 0 a4.3 4.3 0 1 0 -8.6 0zM1404.94 1037.03 a4.3 4.3 0 1 0 8.6 0 a4.3 4.3 0 1 0 -8.6 0zM1553.9 779.03 a4.3 4.3 0 1 0 8.6 0 a4.3 4.3 0 1 0 -8.6 0zM1553.9 822.03 a4.3 4.3 0 1 0 8.6 0 a4.3 4.3 0 1 0 -8.6 0zM1516.66 843.53 a4.3 4.3 0 1 0 8.6 0 a4.3 4.3 0 1 0 -8.6 0zM1479.42 822.03 a4.3 4.3 0 1 0 8.6 0 a4.3 4.3 0 1 0 -8.6 0zM1591.14 -16.47 a4.3 4.3 0 1 0 8.6 0 a4.3 4.3 0 1 0 -8.6 0zM1628.38 5.03 a4.3 4.3 0 1 0 8.6 0 a4.3 4.3 0 1 0 -8.6 0zM1628.38 48.03 a4.3 4.3 0 1 0 8.6 0 a4.3 4.3 0 1 0 -8.6 0zM1591.14 69.53 a4.3 4.3 0 1 0 8.6 0 a4.3 4.3 0 1 0 -8.6 0zM1553.9 48.03 a4.3 4.3 0 1 0 8.6 0 a4.3 4.3 0 1 0 -8.6 0zM1553.9 5.03 a4.3 4.3 0 1 0 8.6 0 a4.3 4.3 0 1 0 -8.6 0zM1591.14 112.53 a4.3 4.3 0 1 0 8.6 0 a4.3 4.3 0 1 0 -8.6 0zM1628.38 134.03 a4.3 4.3 0 1 0 8.6 0 a4.3 4.3 0 1 0 -8.6 0zM1628.38 177.03 a4.3 4.3 0 1 0 8.6 0 a4.3 4.3 0 1 0 -8.6 0zM1591.14 198.53 a4.3 4.3 0 1 0 8.6 0 a4.3 4.3 0 1 0 -8.6 0zM1553.9 177.03 a4.3 4.3 0 1 0 8.6 0 a4.3 4.3 0 1 0 -8.6 0zM1553.9 134.03 a4.3 4.3 0 1 0 8.6 0 a4.3 4.3 0 1 0 -8.6 0zM1591.14 241.53 a4.3 4.3 0 1 0 8.6 0 a4.3 4.3 0 1 0 -8.6 0zM1628.38 263.03 a4.3 4.3 0 1 0 8.6 0 a4.3 4.3 0 1 0 -8.6 0zM1628.38 306.03 a4.3 4.3 0 1 0 8.6 0 a4.3 4.3 0 1 0 -8.6 0zM1591.14 327.53 a4.3 4.3 0 1 0 8.6 0 a4.3 4.3 0 1 0 -8.6 0zM1553.9 306.03 a4.3 4.3 0 1 0 8.6 0 a4.3 4.3 0 1 0 -8.6 0zM1553.9 263.03 a4.3 4.3 0 1 0 8.6 0 a4.3 4.3 0 1 0 -8.6 0zM1665.62 327.53 a4.3 4.3 0 1 0 8.6 0 a4.3 4.3 0 1 0 -8.6 0zM1665.62 370.53 a4.3 4.3 0 1 0 8.6 0 a4.3 4.3 0 1 0 -8.6 0zM1628.38 392.03 a4.3 4.3 0 1 0 8.6 0 a4.3 4.3 0 1 0 -8.6 0zM1591.14 370.53 a4.3 4.3 0 1 0 8.6 0 a4.3 4.3 0 1 0 -8.6 0zM1591.14 757.53 a4.3 4.3 0 1 0 8.6 0 a4.3 4.3 0 1 0 -8.6 0zM1628.38 779.03 a4.3 4.3 0 1 0 8.6 0 a4.3 4.3 0 1 0 -8.6 0zM1628.38 822.03 a4.3 4.3 0 1 0 8.6 0 a4.3 4.3 0 1 0 -8.6 0zM1591.14 843.53 a4.3 4.3 0 1 0 8.6 0 a4.3 4.3 0 1 0 -8.6 0zM1665.62 843.53 a4.3 4.3 0 1 0 8.6 0 a4.3 4.3 0 1 0 -8.6 0zM1665.62 886.53 a4.3 4.3 0 1 0 8.6 0 a4.3 4.3 0 1 0 -8.6 0zM1628.38 908.03 a4.3 4.3 0 1 0 8.6 0 a4.3 4.3 0 1 0 -8.6 0zM1591.14 886.53 a4.3 4.3 0 1 0 8.6 0 a4.3 4.3 0 1 0 -8.6 0zM1665.62 241.53 a4.3 4.3 0 1 0 8.6 0 a4.3 4.3 0 1 0 -8.6 0zM1702.86 263.03 a4.3 4.3 0 1 0 8.6 0 a4.3 4.3 0 1 0 -8.6 0zM1702.86 306.03 a4.3 4.3 0 1 0 8.6 0 a4.3 4.3 0 1 0 -8.6 0zM1702.86 908.03 a4.3 4.3 0 1 0 8.6 0 a4.3 4.3 0 1 0 -8.6 0zM1702.86 951.03 a4.3 4.3 0 1 0 8.6 0 a4.3 4.3 0 1 0 -8.6 0zM1665.62 972.53 a4.3 4.3 0 1 0 8.6 0 a4.3 4.3 0 1 0 -8.6 0zM1628.38 951.03 a4.3 4.3 0 1 0 8.6 0 a4.3 4.3 0 1 0 -8.6 0zM1740.1 370.53 a4.3 4.3 0 1 0 8.6 0 a4.3 4.3 0 1 0 -8.6 0zM1777.34 392.03 a4.3 4.3 0 1 0 8.6 0 a4.3 4.3 0 1 0 -8.6 0zM1777.34 435.03 a4.3 4.3 0 1 0 8.6 0 a4.3 4.3 0 1 0 -8.6 0zM1740.1 456.53 a4.3 4.3 0 1 0 8.6 0 a4.3 4.3 0 1 0 -8.6 0zM1702.86 435.03 a4.3 4.3 0 1 0 8.6 0 a4.3 4.3 0 1 0 -8.6 0zM1702.86 392.03 a4.3 4.3 0 1 0 8.6 0 a4.3 4.3 0 1 0 -8.6 0zM1740.1 499.53 a4.3 4.3 0 1 0 8.6 0 a4.3 4.3 0 1 0 -8.6 0zM1777.34 521.03 a4.3 4.3 0 1 0 8.6 0 a4.3 4.3 0 1 0 -8.6 0zM1777.34 564.03 a4.3 4.3 0 1 0 8.6 0 a4.3 4.3 0 1 0 -8.6 0zM1740.1 585.53 a4.3 4.3 0 1 0 8.6 0 a4.3 4.3 0 1 0 -8.6 0zM1702.86 564.03 a4.3 4.3 0 1 0 8.6 0 a4.3 4.3 0 1 0 -8.6 0zM1702.86 521.03 a4.3 4.3 0 1 0 8.6 0 a4.3 4.3 0 1 0 -8.6 0zM1740.1 757.53 a4.3 4.3 0 1 0 8.6 0 a4.3 4.3 0 1 0 -8.6 0zM1777.34 779.03 a4.3 4.3 0 1 0 8.6 0 a4.3 4.3 0 1 0 -8.6 0zM1777.34 822.03 a4.3 4.3 0 1 0 8.6 0 a4.3 4.3 0 1 0 -8.6 0zM1740.1 843.53 a4.3 4.3 0 1 0 8.6 0 a4.3 4.3 0 1 0 -8.6 0zM1702.86 822.03 a4.3 4.3 0 1 0 8.6 0 a4.3 4.3 0 1 0 -8.6 0zM1702.86 779.03 a4.3 4.3 0 1 0 8.6 0 a4.3 4.3 0 1 0 -8.6 0zM1851.82 48.03 a4.3 4.3 0 1 0 8.6 0 a4.3 4.3 0 1 0 -8.6 0zM1889.06 69.53 a4.3 4.3 0 1 0 8.6 0 a4.3 4.3 0 1 0 -8.6 0zM1889.06 112.53 a4.3 4.3 0 1 0 8.6 0 a4.3 4.3 0 1 0 -8.6 0zM1851.82 134.03 a4.3 4.3 0 1 0 8.6 0 a4.3 4.3 0 1 0 -8.6 0zM1814.58 112.53 a4.3 4.3 0 1 0 8.6 0 a4.3 4.3 0 1 0 -8.6 0zM1814.58 69.53 a4.3 4.3 0 1 0 8.6 0 a4.3 4.3 0 1 0 -8.6 0zM1851.82 177.03 a4.3 4.3 0 1 0 8.6 0 a4.3 4.3 0 1 0 -8.6 0zM1889.06 198.53 a4.3 4.3 0 1 0 8.6 0 a4.3 4.3 0 1 0 -8.6 0zM1889.06 241.53 a4.3 4.3 0 1 0 8.6 0 a4.3 4.3 0 1 0 -8.6 0zM1851.82 263.03 a4.3 4.3 0 1 0 8.6 0 a4.3 4.3 0 1 0 -8.6 0zM1814.58 241.53 a4.3 4.3 0 1 0 8.6 0 a4.3 4.3 0 1 0 -8.6 0zM1814.58 198.53 a4.3 4.3 0 1 0 8.6 0 a4.3 4.3 0 1 0 -8.6 0zM1851.82 564.03 a4.3 4.3 0 1 0 8.6 0 a4.3 4.3 0 1 0 -8.6 0zM1889.06 585.53 a4.3 4.3 0 1 0 8.6 0 a4.3 4.3 0 1 0 -8.6 0zM1889.06 628.53 a4.3 4.3 0 1 0 8.6 0 a4.3 4.3 0 1 0 -8.6 0zM1851.82 650.03 a4.3 4.3 0 1 0 8.6 0 a4.3 4.3 0 1 0 -8.6 0zM1814.58 628.53 a4.3 4.3 0 1 0 8.6 0 a4.3 4.3 0 1 0 -8.6 0zM1814.58 585.53 a4.3 4.3 0 1 0 8.6 0 a4.3 4.3 0 1 0 -8.6 0zM1851.82 822.03 a4.3 4.3 0 1 0 8.6 0 a4.3 4.3 0 1 0 -8.6 0zM1889.06 843.53 a4.3 4.3 0 1 0 8.6 0 a4.3 4.3 0 1 0 -8.6 0zM1889.06 886.53 a4.3 4.3 0 1 0 8.6 0 a4.3 4.3 0 1 0 -8.6 0zM1851.82 908.03 a4.3 4.3 0 1 0 8.6 0 a4.3 4.3 0 1 0 -8.6 0zM1814.58 886.53 a4.3 4.3 0 1 0 8.6 0 a4.3 4.3 0 1 0 -8.6 0zM1814.58 843.53 a4.3 4.3 0 1 0 8.6 0 a4.3 4.3 0 1 0 -8.6 0zM1851.82 951.03 a4.3 4.3 0 1 0 8.6 0 a4.3 4.3 0 1 0 -8.6 0zM1889.06 972.53 a4.3 4.3 0 1 0 8.6 0 a4.3 4.3 0 1 0 -8.6 0zM1889.06 1015.53 a4.3 4.3 0 1 0 8.6 0 a4.3 4.3 0 1 0 -8.6 0zM1851.82 1037.03 a4.3 4.3 0 1 0 8.6 0 a4.3 4.3 0 1 0 -8.6 0zM1814.58 1015.53 a4.3 4.3 0 1 0 8.6 0 a4.3 4.3 0 1 0 -8.6 0zM1814.58 972.53 a4.3 4.3 0 1 0 8.6 0 a4.3 4.3 0 1 0 -8.6 0zM1889.06 -16.47 a4.3 4.3 0 1 0 8.6 0 a4.3 4.3 0 1 0 -8.6 0zM1926.3 5.03 a4.3 4.3 0 1 0 8.6 0 a4.3 4.3 0 1 0 -8.6 0zM1926.3 48.03 a4.3 4.3 0 1 0 8.6 0 a4.3 4.3 0 1 0 -8.6 0zM1851.82 5.03 a4.3 4.3 0 1 0 8.6 0 a4.3 4.3 0 1 0 -8.6 0zM1926.3 134.03 a4.3 4.3 0 1 0 8.6 0 a4.3 4.3 0 1 0 -8.6 0zM1926.3 177.03 a4.3 4.3 0 1 0 8.6 0 a4.3 4.3 0 1 0 -8.6 0zM1963.54 198.53 a4.3 4.3 0 1 0 8.6 0 a4.3 4.3 0 1 0 -8.6 0zM1963.54 241.53 a4.3 4.3 0 1 0 8.6 0 a4.3 4.3 0 1 0 -8.6 0zM1926.3 263.03 a4.3 4.3 0 1 0 8.6 0 a4.3 4.3 0 1 0 -8.6 0zM1926.3 908.03 a4.3 4.3 0 1 0 8.6 0 a4.3 4.3 0 1 0 -8.6 0zM1926.3 951.03 a4.3 4.3 0 1 0 8.6 0 a4.3 4.3 0 1 0 -8.6 0z" fill="rgba(0, 0, 0, 0)"></path>
        <path d="M18.95 139.23L60.52 163.23L60.52 211.23L18.95 235.23L-22.62 211.23L-22.62 163.23zM18.95 283.23L60.52 307.23L60.52 355.23L18.95 379.23L-22.62 355.23L-22.62 307.23zM60.52 355.23L102.09 379.23L102.09 427.23L60.52 451.23L18.95 427.23L18.95 379.23zM18.95 427.23L60.52 451.23L60.52 499.23L18.95 523.23L-22.62 499.23L-22.62 451.23zM60.52 643.23L102.09 667.23L102.09 715.23L60.52 739.23L18.95 715.23L18.95 667.23zM18.95 715.23L60.52 739.23L60.52 787.23L18.95 811.23L-22.62 787.23L-22.62 739.23zM18.95 859.23L60.52 883.23L60.52 931.23L18.95 955.23L-22.62 931.23L-22.62 883.23zM60.52 931.23L102.09 955.23L102.09 1003.23L60.52 1027.23L18.95 1003.23L18.95 955.23zM143.66 355.23L185.23 379.23L185.23 427.23L143.66 451.23L102.09 427.23L102.09 379.23zM102.09 427.23L143.66 451.23L143.66 499.23L102.09 523.23L60.52 499.23L60.52 451.23zM102.09 571.23L143.66 595.23L143.66 643.23L102.09 667.23L60.52 643.23L60.52 595.23zM143.66 1075.23L185.23 1099.23L185.23 1147.23L143.66 1171.23L102.09 1147.23L102.09 1099.23zM185.23 139.23L226.8 163.23L226.8 211.23L185.23 235.23L143.66 211.23L143.66 163.23zM226.8 355.23L268.37 379.23L268.37 427.23L226.8 451.23L185.23 427.23L185.23 379.23zM185.23 1003.23L226.8 1027.23L226.8 1075.23L185.23 1099.23L143.66 1075.23L143.66 1027.23zM268.37 283.23L309.94 307.23L309.94 355.23L268.37 379.23L226.8 355.23L226.8 307.23zM268.37 571.23L309.94 595.23L309.94 643.23L268.37 667.23L226.8 643.23L226.8 595.23zM309.94 643.23L351.51 667.23L351.51 715.23L309.94 739.23L268.37 715.23L268.37 667.23zM309.94 787.23L351.51 811.23L351.51 859.23L309.94 883.23L268.37 859.23L268.37 811.23zM268.37 859.23L309.94 883.23L309.94 931.23L268.37 955.23L226.8 931.23L226.8 883.23zM268.37 1003.23L309.94 1027.23L309.94 1075.23L268.37 1099.23L226.8 1075.23L226.8 1027.23zM309.94 1075.23L351.51 1099.23L351.51 1147.23L309.94 1171.23L268.37 1147.23L268.37 1099.23zM351.51 283.23L393.08 307.23L393.08 355.23L351.51 379.23L309.94 355.23L309.94 307.23zM393.08 499.23L434.65 523.23L434.65 571.23L393.08 595.23L351.51 571.23L351.51 523.23zM393.08 931.23L434.65 955.23L434.65 1003.23L393.08 1027.23L351.51 1003.23L351.51 955.23zM476.22 67.23L517.79 91.23L517.79 139.23L476.22 163.23L434.65 139.23L434.65 91.23zM476.22 355.23L517.79 379.23L517.79 427.23L476.22 451.23L434.65 427.23L434.65 379.23zM476.22 499.23L517.79 523.23L517.79 571.23L476.22 595.23L434.65 571.23L434.65 523.23zM476.22 643.23L517.79 667.23L517.79 715.23L476.22 739.23L434.65 715.23L434.65 667.23zM434.65 715.23L476.22 739.23L476.22 787.23L434.65 811.23L393.08 787.23L393.08 739.23zM476.22 931.23L517.79 955.23L517.79 1003.23L476.22 1027.23L434.65 1003.23L434.65 955.23zM434.65 1003.23L476.22 1027.23L476.22 1075.23L434.65 1099.23L393.08 1075.23L393.08 1027.23zM559.37 67.23L600.94 91.23L600.94 139.23L559.37 163.23L517.79 139.23L517.79 91.23zM559.37 211.23L600.94 235.23L600.94 283.23L559.37 307.23L517.79 283.23L517.79 235.23zM517.79 427.23L559.37 451.23L559.37 499.23L517.79 523.23L476.22 499.23L476.22 451.23zM642.51 211.23L684.08 235.23L684.08 283.23L642.51 307.23L600.94 283.23L600.94 235.23zM600.94 283.23L642.51 307.23L642.51 355.23L600.94 379.23L559.37 355.23L559.37 307.23zM600.94 715.23L642.51 739.23L642.51 787.23L600.94 811.23L559.37 787.23L559.37 739.23zM642.51 787.23L684.08 811.23L684.08 859.23L642.51 883.23L600.94 859.23L600.94 811.23zM600.94 859.23L642.51 883.23L642.51 931.23L600.94 955.23L559.37 931.23L559.37 883.23zM684.08 715.23L725.65 739.23L725.65 787.23L684.08 811.23L642.51 787.23L642.51 739.23zM725.65 787.23L767.22 811.23L767.22 859.23L725.65 883.23L684.08 859.23L684.08 811.23zM684.08 1003.23L725.65 1027.23L725.65 1075.23L684.08 1099.23L642.51 1075.23L642.51 1027.23zM767.22 -4.77L808.79 19.23L808.79 67.23L767.22 91.23L725.65 67.23L725.65 19.23zM767.22 571.23L808.79 595.23L808.79 643.23L767.22 667.23L725.65 643.23L725.65 595.23zM808.79 787.23L850.36 811.23L850.36 859.23L808.79 883.23L767.22 859.23L767.22 811.23zM808.79 931.23L850.36 955.23L850.36 1003.23L808.79 1027.23L767.22 1003.23L767.22 955.23zM891.93 67.23L933.5 91.23L933.5 139.23L891.93 163.23L850.36 139.23L850.36 91.23zM891.93 211.23L933.5 235.23L933.5 283.23L891.93 307.23L850.36 283.23L850.36 235.23zM850.36 571.23L891.93 595.23L891.93 643.23L850.36 667.23L808.79 643.23L808.79 595.23zM850.36 859.23L891.93 883.23L891.93 931.23L850.36 955.23L808.79 931.23L808.79 883.23zM975.07 355.23L1016.64 379.23L1016.64 427.23L975.07 451.23L933.5 427.23L933.5 379.23zM975.07 643.23L1016.64 667.23L1016.64 715.23L975.07 739.23L933.5 715.23L933.5 667.23zM933.5 715.23L975.07 739.23L975.07 787.23L933.5 811.23L891.93 787.23L891.93 739.23zM975.07 931.23L1016.64 955.23L1016.64 1003.23L975.07 1027.23L933.5 1003.23L933.5 955.23zM975.07 1075.23L1016.64 1099.23L1016.64 1147.23L975.07 1171.23L933.5 1147.23L933.5 1099.23zM1016.64 -4.77L1058.21 19.23L1058.21 67.23L1016.64 91.23L975.07 67.23L975.07 19.23zM1058.21 499.23L1099.78 523.23L1099.78 571.23L1058.21 595.23L1016.64 571.23L1016.64 523.23zM1058.21 643.23L1099.78 667.23L1099.78 715.23L1058.21 739.23L1016.64 715.23L1016.64 667.23zM1016.64 715.23L1058.21 739.23L1058.21 787.23L1016.64 811.23L975.07 787.23L975.07 739.23zM1016.64 859.23L1058.21 883.23L1058.21 931.23L1016.64 955.23L975.07 931.23L975.07 883.23zM1016.64 1003.23L1058.21 1027.23L1058.21 1075.23L1016.64 1099.23L975.07 1075.23L975.07 1027.23zM1099.78 283.23L1141.35 307.23L1141.35 355.23L1099.78 379.23L1058.21 355.23L1058.21 307.23zM1099.78 427.23L1141.35 451.23L1141.35 499.23L1099.78 523.23L1058.21 499.23L1058.21 451.23zM1141.35 787.23L1182.92 811.23L1182.92 859.23L1141.35 883.23L1099.78 859.23L1099.78 811.23zM1141.35 1075.23L1182.92 1099.23L1182.92 1147.23L1141.35 1171.23L1099.78 1147.23L1099.78 1099.23zM1224.49 67.23L1266.06 91.23L1266.06 139.23L1224.49 163.23L1182.92 139.23L1182.92 91.23zM1182.92 139.23L1224.49 163.23L1224.49 211.23L1182.92 235.23L1141.35 211.23L1141.35 163.23zM1224.49 211.23L1266.06 235.23L1266.06 283.23L1224.49 307.23L1182.92 283.23L1182.92 235.23zM1182.92 283.23L1224.49 307.23L1224.49 355.23L1182.92 379.23L1141.35 355.23L1141.35 307.23zM1224.49 355.23L1266.06 379.23L1266.06 427.23L1224.49 451.23L1182.92 427.23L1182.92 379.23zM1224.49 643.23L1266.06 667.23L1266.06 715.23L1224.49 739.23L1182.92 715.23L1182.92 667.23zM1182.92 715.23L1224.49 739.23L1224.49 787.23L1182.92 811.23L1141.35 787.23L1141.35 739.23zM1182.92 859.23L1224.49 883.23L1224.49 931.23L1182.92 955.23L1141.35 931.23L1141.35 883.23zM1224.49 931.23L1266.06 955.23L1266.06 1003.23L1224.49 1027.23L1182.92 1003.23L1182.92 955.23zM1307.63 67.23L1349.2 91.23L1349.2 139.23L1307.63 163.23L1266.06 139.23L1266.06 91.23zM1307.63 499.23L1349.2 523.23L1349.2 571.23L1307.63 595.23L1266.06 571.23L1266.06 523.23zM1307.63 787.23L1349.2 811.23L1349.2 859.23L1307.63 883.23L1266.06 859.23L1266.06 811.23zM1390.77 67.23L1432.34 91.23L1432.34 139.23L1390.77 163.23L1349.2 139.23L1349.2 91.23zM1390.77 499.23L1432.34 523.23L1432.34 571.23L1390.77 595.23L1349.2 571.23L1349.2 523.23zM1390.77 643.23L1432.34 667.23L1432.34 715.23L1390.77 739.23L1349.2 715.23L1349.2 667.23zM1349.2 859.23L1390.77 883.23L1390.77 931.23L1349.2 955.23L1307.63 931.23L1307.63 883.23zM1349.2 1003.23L1390.77 1027.23L1390.77 1075.23L1349.2 1099.23L1307.63 1075.23L1307.63 1027.23zM1473.91 643.23L1515.48 667.23L1515.48 715.23L1473.91 739.23L1432.34 715.23L1432.34 667.23zM1432.34 859.23L1473.91 883.23L1473.91 931.23L1432.34 955.23L1390.77 931.23L1390.77 883.23zM1515.48 139.23L1557.05 163.23L1557.05 211.23L1515.48 235.23L1473.91 211.23L1473.91 163.23zM1515.48 283.23L1557.05 307.23L1557.05 355.23L1515.48 379.23L1473.91 355.23L1473.91 307.23zM1515.48 571.23L1557.05 595.23L1557.05 643.23L1515.48 667.23L1473.91 643.23L1473.91 595.23zM1640.2 787.23L1681.77 811.23L1681.77 859.23L1640.2 883.23L1598.63 859.23L1598.63 811.23zM1640.2 1075.23L1681.77 1099.23L1681.77 1147.23L1640.2 1171.23L1598.63 1147.23L1598.63 1099.23zM1723.34 67.23L1764.91 91.23L1764.91 139.23L1723.34 163.23L1681.77 139.23L1681.77 91.23zM1723.34 211.23L1764.91 235.23L1764.91 283.23L1723.34 307.23L1681.77 283.23L1681.77 235.23zM1681.77 283.23L1723.34 307.23L1723.34 355.23L1681.77 379.23L1640.2 355.23L1640.2 307.23zM1681.77 427.23L1723.34 451.23L1723.34 499.23L1681.77 523.23L1640.2 499.23L1640.2 451.23zM1681.77 571.23L1723.34 595.23L1723.34 643.23L1681.77 667.23L1640.2 643.23L1640.2 595.23zM1681.77 715.23L1723.34 739.23L1723.34 787.23L1681.77 811.23L1640.2 787.23L1640.2 739.23zM1681.77 859.23L1723.34 883.23L1723.34 931.23L1681.77 955.23L1640.2 931.23L1640.2 883.23zM1723.34 1075.23L1764.91 1099.23L1764.91 1147.23L1723.34 1171.23L1681.77 1147.23L1681.77 1099.23zM1764.91 571.23L1806.48 595.23L1806.48 643.23L1764.91 667.23L1723.34 643.23L1723.34 595.23zM1806.48 787.23L1848.05 811.23L1848.05 859.23L1806.48 883.23L1764.91 859.23L1764.91 811.23zM1764.91 859.23L1806.48 883.23L1806.48 931.23L1764.91 955.23L1723.34 931.23L1723.34 883.23zM1806.48 1075.23L1848.05 1099.23L1848.05 1147.23L1806.48 1171.23L1764.91 1147.23L1764.91 1099.23zM1889.62 67.23L1931.19 91.23L1931.19 139.23L1889.62 163.23L1848.05 139.23L1848.05 91.23zM1848.05 139.23L1889.62 163.23L1889.62 211.23L1848.05 235.23L1806.48 211.23L1806.48 163.23zM1848.05 427.23L1889.62 451.23L1889.62 499.23L1848.05 523.23L1806.48 499.23L1806.48 451.23zM1889.62 931.23L1931.19 955.23L1931.19 1003.23L1889.62 1027.23L1848.05 1003.23L1848.05 955.23zM1889.62 1075.23L1931.19 1099.23L1931.19 1147.23L1889.62 1171.23L1848.05 1147.23L1848.05 1099.23zM1931.19 139.23L1972.76 163.23L1972.76 211.23L1931.19 235.23L1889.62 211.23L1889.62 163.23zM1931.19 571.23L1972.76 595.23L1972.76 643.23L1931.19 667.23L1889.62 643.23L1889.62 595.23zM1972.76 787.23L2014.33 811.23L2014.33 859.23L1972.76 883.23L1931.19 859.23L1931.19 811.23zM1931.19 859.23L1972.76 883.23L1972.76 931.23L1931.19 955.23L1889.62 931.23L1889.62 883.23z" stroke="url(&quot;#SvgjsLinearGradient1336&quot;)" stroke-width="2"></path>
    </g>
    <defs>
        <mask id="SvgjsMask1335">
            <rect width="1920" height="1080" fill="#ffffff"></rect>
        </mask>
        <linearGradient x1="210.048" y1="-209.95200000000003" x2="1709.9520000000002" y2="1289.952" gradientUnits="userSpaceOnUse" id="SvgjsLinearGradient1336">
            <stop stop-color="#0e2a47" offset="0"></stop>
            <stop stop-color="rgba(158, 135, 0, 1)" offset="1"></stop>
        </linearGradient>
    </defs>
</svg>